<?xml version="1.0" encoding="UTF-8" standalone="no"?><!DOCTYPE svg PUBLIC "-//W3C//DTD SVG 1.1//EN" "http://www.w3.org/Graphics/SVG/1.1/DTD/svg11.dtd"><!-- Generated by graphviz version 2.40.1 (20161225.0304)
 --><!-- Title: G Pages: 1 --><svg xmlns="http://www.w3.org/2000/svg" xmlns:xlink="http://www.w3.org/1999/xlink" width="526pt" height="436pt" viewBox="0.00 0.00 526.43 436.00">
<g id="graph0" class="graph" transform="scale(1 1) rotate(0) translate(4 432)">
<title>G</title>
<polygon fill="#ffffff" stroke="transparent" points="-4,4 -4,-432 522.4321,-432 522.4321,4 -4,4"/>
<g id="clust1" class="cluster">
<title>cluster_service_api_beans</title>
<polygon fill="none" stroke="#00ff00" points="103.4321,-8 103.4321,-60 273.4321,-60 273.4321,-8 103.4321,-8"/>
</g>
<g id="clust2" class="cluster">
<title>cluster_service_api</title>
<polygon fill="none" stroke="#000000" points="87.4321,-80 87.4321,-132 209.4321,-132 209.4321,-80 87.4321,-80"/>
</g>
<g id="clust3" class="cluster">
<title>cluster_delegate_tasks_beans</title>
<polygon fill="none" stroke="#00ff00" points="132.4321,-152 132.4321,-204 326.4321,-204 326.4321,-152 132.4321,-152"/>
</g>
<g id="clust4" class="cluster">
<title>cluster_delegate_tasks</title>
<polygon fill="none" stroke="#000000" points="39.4321,-224 39.4321,-276 185.4321,-276 185.4321,-224 39.4321,-224"/>
</g>
<g id="clust5" class="cluster">
<title>cluster_delegate_agent_beans</title>
<polygon fill="none" stroke="#00ff00" points="13.4321,-296 13.4321,-348 211.4321,-348 211.4321,-296 13.4321,-296"/>
</g>
<g id="clust6" class="cluster">
<title>cluster_delegate_agent</title>
<polygon fill="none" stroke="#000000" points="37.4321,-368 37.4321,-420 187.4321,-420 187.4321,-368 37.4321,-368"/>
</g>
<g id="clust7" class="cluster">
<title>cluster_delegate_service_beans</title>
<polygon fill="none" stroke="#00ff00" points="219.4321,-296 219.4321,-348 429.4321,-348 429.4321,-296 219.4321,-296"/>
</g>
<g id="clust8" class="cluster">
<title>cluster_delegate_service</title>
<polygon fill="none" stroke="#000000" points="199.4321,-368 199.4321,-420 361.4321,-420 361.4321,-368 199.4321,-368"/>
</g>
<g id="clust9" class="cluster">
<title>cluster_manager_cx</title>
<polygon fill="none" stroke="#000000" points="378.4321,-368 378.4321,-420 510.4321,-420 510.4321,-368 378.4321,-368"/>
</g>
<!-- service_api_beans -->
<g id="node1" class="node">
<title>service_api_beans</title>
<ellipse fill="none" stroke="#ffffff" cx="188.4321" cy="-34" rx="76.9849" ry="18"/>
<text text-anchor="middle" x="188.4321" y="-29.8" font-family="Times,serif" font-size="14.00" fill="#000000">service api beans</text>
</g>
<!-- service_api -->
<g id="node2" class="node">
<title>service_api</title>
<ellipse fill="none" stroke="#ffffff" cx="148.4321" cy="-106" rx="52.6847" ry="18"/>
<text text-anchor="middle" x="148.4321" y="-101.8" font-family="Times,serif" font-size="14.00" fill="#000000">service api</text>
</g>
<!-- service_api&#45;&gt;service_api_beans -->
<g id="edge1" class="edge">
<title>service_api-&gt;service_api_beans</title>
<path fill="none" stroke="#000000" d="M162.8741,-80.0043C166.3339,-73.7768 170.0346,-67.1155 173.5153,-60.8501"/>
<polygon fill="#000000" stroke="#000000" points="169.7014,-69.506 174.3803,-60 164.7946,-64.5134 169.7014,-69.506"/>
</g>
<!-- delegate_tasks_beans -->
<g id="node3" class="node">
<title>delegate_tasks_beans</title>
<ellipse fill="none" stroke="#ffffff" cx="229.4321" cy="-178" rx="89.1646" ry="18"/>
<text text-anchor="middle" x="229.4321" y="-173.8" font-family="Times,serif" font-size="14.00" fill="#000000">delegate tasks beans</text>
</g>
<!-- delegate_tasks_beans&#45;&gt;service_api_beans -->
<g id="edge3" class="edge">
<title>delegate_tasks_beans-&gt;service_api_beans</title>
<path fill="none" stroke="#000000" d="M227.5785,-152.0007C225.5802,-131.9089 221.5224,-103.6329 213.4321,-80 211.2683,-73.6794 208.2863,-67.1964 205.1341,-61.1652"/>
<polygon fill="#000000" stroke="#000000" points="213.3033,-65.3083 204.1339,-60 207.9917,-69.8678 213.3033,-65.3083"/>
</g>
<!-- delegate_tasks_beans&#45;&gt;service_api -->
<!-- delegate_tasks -->
<g id="node4" class="node">
<title>delegate_tasks</title>
<ellipse fill="none" stroke="#ffffff" cx="112.4321" cy="-250" rx="64.8639" ry="18"/>
<text text-anchor="middle" x="112.4321" y="-245.8" font-family="Times,serif" font-size="14.00" fill="#000000">delegate tasks</text>
</g>
<!-- delegate_tasks&#45;&gt;service_api -->
<g id="edge5" class="edge">
<title>delegate_tasks-&gt;service_api</title>
<path fill="none" stroke="#000000" d="M114.8967,-224.0046C117.2155,-204.0243 121.407,-175.8915 128.4321,-152 130.2699,-145.7497 132.7417,-139.2241 135.3198,-133.1178"/>
<polygon fill="#000000" stroke="#000000" points="132.0269,-141.6582 136.383,-132 126.9547,-136.8336 132.0269,-141.6582"/>
</g>
<!-- delegate_tasks&#45;&gt;delegate_tasks_beans -->
<g id="edge4" class="edge">
<title>delegate_tasks-&gt;delegate_tasks_beans</title>
<path fill="none" stroke="#000000" d="M154.677,-224.0031C162.3856,-219.2594 170.5031,-214.264 178.4337,-209.3836"/>
<polygon fill="#000000" stroke="#000000" points="180.5075,-212.2171 187.1898,-203.9953 176.8388,-206.2555 180.5075,-212.2171"/>
</g>
<!-- delegate_agent_beans -->
<g id="node5" class="node">
<title>delegate_agent_beans</title>
<ellipse fill="none" stroke="#ffffff" cx="112.4321" cy="-322" rx="90.8723" ry="18"/>
<text text-anchor="middle" x="112.4321" y="-317.8" font-family="Times,serif" font-size="14.00" fill="#000000">delegate agent beans</text>
</g>
<!-- delegate_agent_beans&#45;&gt;delegate_tasks -->
<!-- delegate_agent -->
<g id="node6" class="node">
<title>delegate_agent</title>
<ellipse fill="none" stroke="#ffffff" cx="112.4321" cy="-394" rx="66.5719" ry="18"/>
<text text-anchor="middle" x="112.4321" y="-389.8" font-family="Times,serif" font-size="14.00" fill="#000000">delegate agent</text>
</g>
<!-- delegate_agent&#45;&gt;delegate_tasks -->
<g id="edge8" class="edge">
<title>delegate_agent-&gt;delegate_tasks</title>
<path fill="none" stroke="#000000" d="M37.433,-373.1602C26.3391,-366.8452 16.3351,-358.643 9.4321,-348 -3.144,-328.6102 -3.144,-315.3898 9.4321,-296 14.9187,-287.5408 22.3643,-280.6235 30.7591,-274.9702"/>
<polygon fill="#000000" stroke="#000000" points="32.685,-277.8959 39.4329,-269.7278 29.0641,-271.905 32.685,-277.8959"/>
</g>
<!-- delegate_agent&#45;&gt;delegate_agent_beans -->
<g id="edge7" class="edge">
<title>delegate_agent-&gt;delegate_agent_beans</title>
<path fill="none" stroke="#000000" d="M112.4321,-368.0017C112.4321,-362.2914 112.4321,-356.2165 112.4321,-350.4166"/>
<polygon fill="#000000" stroke="#000000" points="115.9325,-357.9999 112.4321,-348 108.9325,-358.0001 115.9325,-357.9999"/>
</g>
<!-- delegate_service_beans -->
<g id="node7" class="node">
<title>delegate_service_beans</title>
<ellipse fill="none" stroke="#ffffff" cx="324.4321" cy="-322" rx="97.2297" ry="18"/>
<text text-anchor="middle" x="324.4321" y="-317.8" font-family="Times,serif" font-size="14.00" fill="#000000">delegate service beans</text>
</g>
<!-- delegate_agent&#45;&gt;delegate_service_beans -->
<g id="edge9" class="edge">
<title>delegate_agent-&gt;delegate_service_beans</title>
<path fill="none" stroke="#000000" d="M187.4311,-368.5286C203.8355,-362.9573 221.326,-357.0172 238.1317,-351.3095"/>
<polygon fill="#000000" stroke="#000000" points="239.5387,-354.5281 247.882,-347.9981 237.2876,-347.8999 239.5387,-354.5281"/>
</g>
<!-- delegate_service -->
<g id="node8" class="node">
<title>delegate_service</title>
<ellipse fill="none" stroke="#ffffff" cx="280.4321" cy="-394" rx="72.9291" ry="18"/>
<text text-anchor="middle" x="280.4321" y="-389.8" font-family="Times,serif" font-size="14.00" fill="#000000">delegate service</text>
</g>
<!-- delegate_service&#45;&gt;delegate_agent_beans -->
<g id="edge11" class="edge">
<title>delegate_service-&gt;delegate_agent_beans</title>
<path fill="none" stroke="#000000" d="M219.7665,-368.0005C207.6391,-362.803 194.8068,-357.3034 182.3952,-351.9842"/>
<polygon fill="#000000" stroke="#000000" points="183.6679,-348.7218 173.0977,-347.9996 180.9104,-355.1558 183.6679,-348.7218"/>
</g>
<!-- delegate_service&#45;&gt;delegate_service_beans -->
<g id="edge10" class="edge">
<title>delegate_service-&gt;delegate_service_beans</title>
<path fill="none" stroke="#000000" d="M296.3187,-368.0036C300.1752,-361.6931 304.3038,-354.9371 308.177,-348.5992"/>
<polygon fill="#000000" stroke="#000000" points="301.8513,-355.3473 309.485,-348 298.9357,-348.9832 301.8513,-355.3473"/>
</g>
<!-- manager_cx -->
<g id="node9" class="node">
<title>manager_cx</title>
<ellipse fill="none" stroke="#ffffff" cx="444.4321" cy="-394" rx="57.927" ry="18"/>
<text text-anchor="middle" x="444.4321" y="-389.8" font-family="Times,serif" font-size="14.00" fill="#000000">manager Cx</text>
</g>
<!-- manager_cx&#45;&gt;delegate_tasks_beans -->
<g id="edge13" class="edge">
<title>manager_cx-&gt;delegate_tasks_beans</title>
<path fill="none" stroke="#000000" d="M447.5979,-368.0049C448.8223,-346.9197 447.3627,-317.3053 433.4321,-296 406.726,-255.1561 360.6229,-226.7569 318.9942,-208.0723"/>
<polygon fill="#000000" stroke="#000000" points="320.2021,-204.7809 309.6361,-203.9984 317.408,-211.1991 320.2021,-204.7809"/>
</g>
<!-- manager_cx&#45;&gt;delegate_service_beans -->
<g id="edge12" class="edge">
<title>manager_cx-&gt;delegate_service_beans</title>
<path fill="none" stroke="#000000" d="M401.1007,-368.0012C393.1067,-363.2048 384.6839,-358.1511 376.4642,-353.2193"/>
<polygon fill="#000000" stroke="#000000" points="378.1348,-350.14 367.7592,-347.9962 374.5333,-356.1425 378.1348,-350.14"/>
</g>
</g>
</svg>