<?xml version="1.0" encoding="UTF-8" standalone="no"?><!DOCTYPE svg PUBLIC "-//W3C//DTD SVG 1.1//EN" "http://www.w3.org/Graphics/SVG/1.1/DTD/svg11.dtd"><!-- Generated by graphviz version 2.40.1 (20161225.0304)
 --><!-- Title: G Pages: 1 -->
<svg xmlns="http://www.w3.org/2000/svg" width="541pt" height="508pt" viewBox="0.00 0.00 540.63 508.00">
    <g id="graph0" class="graph" transform="scale(1 1) rotate(0) translate(4 504)">
        <title>G</title>
        <polygon fill="#ffffff" stroke="transparent" points="-4,4 -4,-504 536.6274,-504 536.6274,4 -4,4"/>
        <g id="clust1" class="cluster">
            <title>cluster_service_api_beans</title>
            <polygon fill="none" stroke="#00ff00" points="301.6274,-8 301.6274,-60 471.6274,-60 471.6274,-8 301.6274,-8"/>
        </g>
        <g id="clust2" class="cluster">
            <title>cluster_service_api</title>
            <polygon fill="none" stroke="#000000" points="285.6274,-80 285.6274,-132 407.6274,-132 407.6274,-80 285.6274,-80"/>
        </g>
        <g id="clust3" class="cluster">
            <title>cluster_delegate_tasks_beans</title>
            <polygon fill="none" stroke="#00ff00" points="330.6274,-152 330.6274,-204 524.6274,-204 524.6274,-152 330.6274,-152"/>
        </g>
        <g id="clust4" class="cluster">
            <title>cluster_delegate_tasks</title>
            <polygon fill="none" stroke="#000000" points="237.6274,-224 237.6274,-276 383.6274,-276 383.6274,-224 237.6274,-224"/>
        </g>
        <g id="clust5" class="cluster">
            <title>cluster_delegate_beans</title>
            <polygon fill="none" stroke="#00ff00" points="234.6274,-296 234.6274,-348 386.6274,-348 386.6274,-296 234.6274,-296"/>
        </g>
        <g id="clust6" class="cluster">
            <title>cluster_delegate_agent_beans</title>
            <polygon fill="none" stroke="#00ff00" points="13.6274,-368 13.6274,-420 211.6274,-420 211.6274,-368 13.6274,-368"/>
        </g>
        <g id="clust7" class="cluster">
            <title>cluster_delegate_agent</title>
            <polygon fill="none" stroke="#000000" points="37.6274,-440 37.6274,-492 187.6274,-492 187.6274,-440 37.6274,-440"/>
        </g>
        <g id="clust8" class="cluster">
            <title>cluster_delegate_service_beans</title>
            <polygon fill="none" stroke="#00ff00" points="219.6274,-368 219.6274,-420 429.6274,-420 429.6274,-368 219.6274,-368"/>
        </g>
        <g id="clust9" class="cluster">
            <title>cluster_delegate_service</title>
            <polygon fill="none" stroke="#000000" points="199.6274,-440 199.6274,-492 361.6274,-492 361.6274,-440 199.6274,-440"/>
        </g>
        <g id="clust10" class="cluster">
            <title>cluster_manager_cx</title>
            <polygon fill="none" stroke="#000000" points="378.6274,-440 378.6274,-492 510.6274,-492 510.6274,-440 378.6274,-440"/>
        </g>
        <!-- service_api_beans -->
        <g id="node1" class="node">
            <title>service_api_beans</title>
            <ellipse fill="none" stroke="#ffffff" cx="386.6274" cy="-34" rx="76.9849" ry="18"/>
            <text text-anchor="middle" x="386.6274" y="-29.8" font-family="Times,serif" font-size="14.00" fill="#000000">service api beans</text>
        </g>
        <!-- service_api -->
        <g id="node2" class="node">
            <title>service_api</title>
            <ellipse fill="none" stroke="#ffffff" cx="346.6274" cy="-106" rx="52.6847" ry="18"/>
            <text text-anchor="middle" x="346.6274" y="-101.8" font-family="Times,serif" font-size="14.00" fill="#000000">service api</text>
        </g>
        <!-- service_api&#45;&gt;service_api_beans -->
        <g id="edge1" class="edge">
            <title>service_api-&gt;service_api_beans</title>
            <path fill="none" stroke="#000000" d="M361.0695,-80.0043C364.5292,-73.7768 368.23,-67.1155 371.7107,-60.8501"/>
            <polygon fill="#000000" stroke="#000000" points="367.8967,-69.506 372.5757,-60 362.9899,-64.5134 367.8967,-69.506"/>
        </g>
        <!-- delegate_tasks_beans -->
        <g id="node3" class="node">
            <title>delegate_tasks_beans</title>
            <ellipse fill="none" stroke="#ffffff" cx="427.6274" cy="-178" rx="89.1646" ry="18"/>
            <text text-anchor="middle" x="427.6274" y="-173.8" font-family="Times,serif" font-size="14.00" fill="#000000">delegate tasks beans</text>
        </g>
        <!-- delegate_tasks_beans&#45;&gt;service_api_beans -->
        <g id="edge3" class="edge">
            <title>delegate_tasks_beans-&gt;service_api_beans</title>
            <path fill="none" stroke="#000000" d="M425.7739,-152.0007C423.7756,-131.9089 419.7178,-103.6329 411.6274,-80 409.4637,-73.6794 406.4816,-67.1964 403.3295,-61.1652"/>
            <polygon fill="#000000" stroke="#000000" points="411.4987,-65.3083 402.3293,-60 406.187,-69.8678 411.4987,-65.3083"/>
        </g>
        <!-- delegate_tasks_beans&#45;&gt;service_api -->
        <!-- delegate_tasks -->
        <g id="node4" class="node">
            <title>delegate_tasks</title>
            <ellipse fill="none" stroke="#ffffff" cx="310.6274" cy="-250" rx="64.8639" ry="18"/>
            <text text-anchor="middle" x="310.6274" y="-245.8" font-family="Times,serif" font-size="14.00" fill="#000000">delegate tasks</text>
        </g>
        <!-- delegate_tasks&#45;&gt;service_api -->
        <g id="edge5" class="edge">
            <title>delegate_tasks-&gt;service_api</title>
            <path fill="none" stroke="#000000" d="M313.092,-224.0046C315.4109,-204.0243 319.6023,-175.8915 326.6274,-152 328.4653,-145.7497 330.937,-139.2241 333.5152,-133.1178"/>
            <polygon fill="#000000" stroke="#000000" points="330.2222,-141.6582 334.5783,-132 325.1501,-136.8336 330.2222,-141.6582"/>
        </g>
        <!-- delegate_tasks&#45;&gt;delegate_tasks_beans -->
        <g id="edge4" class="edge">
            <title>delegate_tasks-&gt;delegate_tasks_beans</title>
            <path fill="none" stroke="#000000" d="M352.8723,-224.0031C360.5809,-219.2594 368.6985,-214.264 376.6291,-209.3836"/>
            <polygon fill="#000000" stroke="#000000" points="378.7029,-212.2171 385.3851,-203.9953 375.0342,-206.2555 378.7029,-212.2171"/>
        </g>
        <!-- delegate_beans -->
        <g id="node5" class="node">
            <title>delegate_beans</title>
            <ellipse fill="none" stroke="#ffffff" cx="310.6274" cy="-322" rx="67.7159" ry="18"/>
            <text text-anchor="middle" x="310.6274" y="-317.8" font-family="Times,serif" font-size="14.00" fill="#000000">delegate beans</text>
        </g>
        <!-- delegate_beans&#45;&gt;delegate_tasks -->
        <!-- delegate_agent_beans -->
        <g id="node6" class="node">
            <title>delegate_agent_beans</title>
            <ellipse fill="none" stroke="#ffffff" cx="112.6274" cy="-394" rx="90.8723" ry="18"/>
            <text text-anchor="middle" x="112.6274" y="-389.8" font-family="Times,serif" font-size="14.00" fill="#000000">delegate agent beans</text>
        </g>
        <!-- delegate_agent_beans&#45;&gt;delegate_beans -->
        <g id="edge6" class="edge">
            <title>delegate_agent_beans-&gt;delegate_beans</title>
            <path fill="none" stroke="#000000" d="M184.1233,-368.0015C198.8975,-362.6291 214.5593,-356.9339 229.6436,-351.4487"/>
            <polygon fill="#000000" stroke="#000000" points="230.9295,-354.7054 239.1313,-347.9986 228.5372,-348.1268 230.9295,-354.7054"/>
        </g>
        <!-- delegate_agent -->
        <g id="node7" class="node">
            <title>delegate_agent</title>
            <ellipse fill="none" stroke="#ffffff" cx="112.6274" cy="-466" rx="66.5719" ry="18"/>
            <text text-anchor="middle" x="112.6274" y="-461.8" font-family="Times,serif" font-size="14.00" fill="#000000">delegate agent</text>
        </g>
        <!-- delegate_agent&#45;&gt;delegate_tasks -->
        <g id="edge10" class="edge">
            <title>delegate_agent-&gt;delegate_tasks</title>
            <path fill="none" stroke="#000000" d="M37.6283,-445.1602C26.5345,-438.8452 16.5304,-430.643 9.6274,-420 -2.9487,-400.6102 -3.3952,-387.0928 9.6274,-368 35.0874,-330.6726 147.5739,-293.6248 227.5551,-271.2685"/>
            <polygon fill="#000000" stroke="#000000" points="228.9248,-274.5211 237.6298,-268.4817 227.0586,-267.7745 228.9248,-274.5211"/>
        </g>
        <!-- delegate_agent&#45;&gt;delegate_agent_beans -->
        <g id="edge9" class="edge">
            <title>delegate_agent-&gt;delegate_agent_beans</title>
            <path fill="none" stroke="#000000" d="M112.6274,-440.0017C112.6274,-434.2914 112.6274,-428.2165 112.6274,-422.4166"/>
            <polygon fill="#000000" stroke="#000000" points="116.1278,-429.9999 112.6274,-420 109.1278,-430.0001 116.1278,-429.9999"/>
        </g>
        <!-- delegate_service_beans -->
        <g id="node8" class="node">
            <title>delegate_service_beans</title>
            <ellipse fill="none" stroke="#ffffff" cx="324.6274" cy="-394" rx="97.2297" ry="18"/>
            <text text-anchor="middle" x="324.6274" y="-389.8" font-family="Times,serif" font-size="14.00" fill="#000000">delegate service beans</text>
        </g>
        <!-- delegate_agent&#45;&gt;delegate_service_beans -->
        <g id="edge11" class="edge">
            <title>delegate_agent-&gt;delegate_service_beans</title>
            <path fill="none" stroke="#000000" d="M187.6264,-440.5286C204.0308,-434.9573 221.5213,-429.0172 238.3271,-423.3095"/>
            <polygon fill="#000000" stroke="#000000" points="239.7341,-426.5281 248.0774,-419.9981 237.483,-419.8999 239.7341,-426.5281"/>
        </g>
        <!-- delegate_service_beans&#45;&gt;delegate_beans -->
        <g id="edge7" class="edge">
            <title>delegate_service_beans-&gt;delegate_beans</title>
            <path fill="none" stroke="#000000" d="M319.5722,-368.0017C318.4619,-362.2914 317.2806,-356.2165 316.1529,-350.4166"/>
            <polygon fill="#000000" stroke="#000000" points="322.1098,-356.0383 315.2078,-348 315.5906,-358.588 322.1098,-356.0383"/>
        </g>
        <!-- delegate_service -->
        <g id="node9" class="node">
            <title>delegate_service</title>
            <ellipse fill="none" stroke="#ffffff" cx="280.6274" cy="-466" rx="72.9291" ry="18"/>
            <text text-anchor="middle" x="280.6274" y="-461.8" font-family="Times,serif" font-size="14.00" fill="#000000">delegate service</text>
        </g>
        <!-- delegate_service&#45;&gt;delegate_agent_beans -->
        <g id="edge13" class="edge">
            <title>delegate_service-&gt;delegate_agent_beans</title>
            <path fill="none" stroke="#000000" d="M219.9619,-440.0005C207.8344,-434.803 195.0021,-429.3034 182.5906,-423.9842"/>
            <polygon fill="#000000" stroke="#000000" points="183.8633,-420.7218 173.2931,-419.9996 181.1058,-427.1558 183.8633,-420.7218"/>
        </g>
        <!-- delegate_service&#45;&gt;delegate_service_beans -->
        <g id="edge12" class="edge">
            <title>delegate_service-&gt;delegate_service_beans</title>
            <path fill="none" stroke="#000000" d="M296.5141,-440.0036C300.3705,-433.6931 304.4992,-426.9371 308.3724,-420.5992"/>
            <polygon fill="#000000" stroke="#000000" points="302.0467,-427.3473 309.6804,-420 299.131,-420.9832 302.0467,-427.3473"/>
        </g>
        <!-- manager_cx -->
        <g id="node10" class="node">
            <title>manager_cx</title>
            <ellipse fill="none" stroke="#ffffff" cx="444.6274" cy="-466" rx="57.927" ry="18"/>
            <text text-anchor="middle" x="444.6274" y="-461.8" font-family="Times,serif" font-size="14.00" fill="#000000">manager Cx</text>
        </g>
        <!-- manager_cx&#45;&gt;delegate_tasks_beans -->
        <g id="edge15" class="edge">
            <title>manager_cx-&gt;delegate_tasks_beans</title>
            <path fill="none" stroke="#000000" d="M443.0928,-440.0022C439.9022,-385.949 432.5763,-261.8402 429.2836,-206.0573"/>
            <polygon fill="#000000" stroke="#000000" points="434.8241,-212.6389 428.6905,-204 428.098,-214.5784 434.8241,-212.6389"/>
        </g>
        <!-- manager_cx&#45;&gt;delegate_service_beans -->
        <g id="edge14" class="edge">
            <title>manager_cx-&gt;delegate_service_beans</title>
            <path fill="none" stroke="#000000" d="M401.2961,-440.0012C393.3021,-435.2048 384.8793,-430.1511 376.6596,-425.2193"/>
            <polygon fill="#000000" stroke="#000000" points="378.3302,-422.14 367.9545,-419.9962 374.7287,-428.1425 378.3302,-422.14"/>
        </g>
    </g>
</svg>